<svg width="64" height="64" viewBox="0 0 64 64" fill="none" xmlns="http://www.w3.org/2000/svg">
<path d="M0 0H64V64H0V0Z" fill="#334155"/>
<path d="M26.5082 51.55C26.2749 51.55 26.0582 51.4333 25.8582 51.2C25.6582 50.9667 25.5249 50.7 25.4582 50.4L25.3082 49.45C25.2082 49.05 25.1582 48.8 25.1582 48.7C21.4249 35.3333 19.3749 27.8333 19.0082 26.2C18.7082 25 18.0249 21.6667 16.9582 16.2C16.9249 16.4 16.9082 17.0833 16.9082 18.25V36.35L17.0082 43.5L17.1082 50.6L16.8082 51H15.6582L15.5082 50.6C15.5749 50.2667 15.6082 49.6 15.6082 48.6L15.5582 39.9L15.4582 31.2V24.65V19.9C15.4249 18.5 15.4082 16.9333 15.4082 15.2C15.4082 15 15.3915 14.8167 15.3582 14.65V14.15C15.3582 13.75 15.4582 13.4833 15.6582 13.35C15.8915 13.1833 16.2415 13.1 16.7082 13.1C16.9082 13.1 17.1249 13.2 17.3582 13.4C17.6249 13.6 17.7915 13.8167 17.8582 14.05L18.9082 18.95C19.3749 21.2833 19.7749 23.05 20.1082 24.25C20.8082 27.0167 22.0082 31.55 23.7082 37.85C24.6749 41.9833 25.5415 45.15 26.3082 47.35C26.5082 46.85 26.6082 46.05 26.6082 44.95C26.6082 41.7167 26.6415 38.8167 26.7082 36.25L26.8082 27.55C26.8082 26.1167 26.8249 24.8167 26.8582 23.65V19.8L26.8082 12.75C26.9749 12.2833 27.3249 12.05 27.8582 12.05C28.1249 12.05 28.2582 12.5333 28.2582 13.5C28.2582 13.9333 28.2415 14.2833 28.2082 14.55C28.2082 14.8167 28.1915 15.0167 28.1582 15.15C28.1582 15.25 28.1582 15.3167 28.1582 15.35V18.55C28.1582 22.9833 28.1415 26.9333 28.1082 30.4C28.0749 33.9 28.0582 37.8333 28.0582 42.2C28.0582 43.0333 28.0082 44.35 27.9082 46.15L27.8082 50.1C27.8082 51.0667 27.3749 51.55 26.5082 51.55ZM42.3023 51.8C39.8023 51.8 37.9523 50 36.7523 46.4C35.5523 42.8 34.9523 37.2 34.9523 29.6C34.9523 27.9667 34.9857 26.5167 35.0523 25.25C35.119 23.7167 35.3523 22.0667 35.7523 20.3C35.919 19.4 36.119 18.6167 36.3523 17.95C36.619 17.2833 36.969 16.5833 37.4023 15.85C38.169 14.5167 39.2357 13.5833 40.6023 13.05C41.3357 12.7833 42.1023 12.65 42.9023 12.65C43.9023 12.65 44.4023 12.9333 44.4023 13.5C44.4023 13.9 44.1523 14.1 43.6523 14.1C43.519 14.1 43.2857 14.05 42.9523 13.95L42.2523 13.85C41.1523 13.85 40.2023 14.3 39.4023 15.2C38.8357 15.8667 38.2857 17.0167 37.7523 18.65C37.3857 19.9833 37.1357 21.4667 37.0023 23.1C36.9023 24 36.8023 25.4667 36.7023 27.5L36.6523 30.8V33.55C36.6523 36.7833 36.8857 39.7333 37.3523 42.4C37.6857 44.0667 38.069 45.45 38.5023 46.55C38.969 47.65 39.5857 48.55 40.3523 49.25C41.1857 50.0167 42.0857 50.4 43.0523 50.4C44.819 50.4 46.2357 49.5667 47.3023 47.9C47.3023 47 47.2357 45.8167 47.1023 44.35C47.0023 43.6167 46.869 42.9333 46.7023 42.3C46.5023 41.7333 46.269 41.45 46.0023 41.45L45.0523 41.55L44.0023 41.65C43.2357 41.65 42.8523 41.3667 42.8523 40.8C42.8523 40.5333 43.319 40.2833 44.2523 40.05C45.1857 39.8167 45.969 39.7 46.6023 39.7C47.1357 39.7 47.519 39.9 47.7523 40.3C48.019 40.6667 48.1523 41.1667 48.1523 41.8C48.1523 42.5333 48.319 44.0167 48.6523 46.25C48.9857 48.1167 49.1523 49.6 49.1523 50.7C49.1523 51.2333 48.9357 51.5 48.5023 51.5C47.7023 51.5 47.3023 51.1333 47.3023 50.4L47.3523 50.25V50.15C45.4523 51.25 43.769 51.8 42.3023 51.8Z" fill="white"/>
</svg>
