<svg width="72" height="72" viewBox="0 0 72 72" fill="none" xmlns="http://www.w3.org/2000/svg">
<g filter="url(#filter0_d_8_2)">
<path d="M4 0H68V64H4V0Z" fill="#1E293B"/>
<path d="M45.0332 31.542L43.2754 28.6367V10.5703H45.0332V31.542ZM48.5488 37.3037L46.791 34.3496V10.5703H48.5488V37.3037ZM52.0645 43.1387L50.3066 40.1602V10.5703H52.0645V43.1387ZM26.8691 30.0283L28.627 32.9336V51H26.8691V30.0283ZM23.3535 24.2666L25.1113 27.2207V51H23.3535V24.2666ZM19.8379 18.4316L21.5957 21.4102V51H19.8379V18.4316ZM20.4482 10.5703H22.499L47.3525 51H45.3018L20.4482 10.5703ZM24.5986 10.5703H26.6738L51.5029 51H49.4033L24.5986 10.5703ZM28.7246 10.5703H30.7754L53.8223 48.1436V10.5703H55.5801V51C55.5801 51 54.8883 51 53.5049 51L28.7246 10.5703ZM18.0801 13.4268V51H16.3223V10.5703C16.3223 10.5703 17.0221 10.5703 18.4219 10.5703L43.2021 51H41.1758L18.0801 13.4268Z" fill="white"/>
</g>
<defs>
<filter id="filter0_d_8_2" x="0" y="0" width="72" height="72" filterUnits="userSpaceOnUse" color-interpolation-filters="sRGB">
<feFlood flood-opacity="0" result="BackgroundImageFix"/>
<feColorMatrix in="SourceAlpha" type="matrix" values="0 0 0 0 0 0 0 0 0 0 0 0 0 0 0 0 0 0 127 0" result="hardAlpha"/>
<feOffset dy="4"/>
<feGaussianBlur stdDeviation="2"/>
<feComposite in2="hardAlpha" operator="out"/>
<feColorMatrix type="matrix" values="0 0 0 0 0 0 0 0 0 0 0 0 0 0 0 0 0 0 0.25 0"/>
<feBlend mode="normal" in2="BackgroundImageFix" result="effect1_dropShadow_8_2"/>
<feBlend mode="normal" in="SourceGraphic" in2="effect1_dropShadow_8_2" result="shape"/>
</filter>
</defs>
</svg>
