<svg width="72" height="72" viewBox="0 0 72 72" fill="none" xmlns="http://www.w3.org/2000/svg">
<g filter="url(#filter0_d_8_2)">
<path d="M4 0H68V64H4V0Z" fill="#1E293B"/>
<path d="M14.0482 21.7V46H13.0042V18.604L32.8762 43.264V19H33.9202V46.396L14.0482 21.7ZM52.5054 19.324C50.1294 19.324 47.9574 19.936 45.9894 21.16C44.0454 22.36 42.4974 23.98 41.3454 26.02C40.2174 28.036 39.6534 30.208 39.6534 32.536C39.6534 34.888 40.2294 37.072 41.3814 39.088C42.5334 41.104 44.0574 42.712 45.9534 43.912C47.8734 45.088 49.9374 45.676 52.1454 45.676C53.4414 45.676 54.5934 45.556 55.6014 45.316C56.6334 45.076 57.6174 44.692 58.5534 44.164V35.704H49.6254V34.66H59.7414V43.408L59.8134 43.372V44.704C58.6614 45.4 57.4734 45.904 56.2494 46.216C55.0494 46.552 53.7294 46.72 52.2894 46.72C49.7694 46.72 47.4534 46.108 45.3414 44.884C43.2294 43.636 41.5494 41.932 40.3014 39.772C39.0774 37.588 38.4654 35.14 38.4654 32.428C38.4654 29.812 39.1014 27.424 40.3734 25.264C41.6694 23.104 43.3854 21.4 45.5214 20.152C47.6814 18.904 49.9734 18.28 52.3974 18.28C54.0774 18.28 55.4094 18.436 56.3934 18.748C57.3774 19.036 58.5174 19.552 59.8134 20.296V21.628C58.5894 20.788 57.4494 20.2 56.3934 19.864C55.3614 19.504 54.0654 19.324 52.5054 19.324Z" fill="white"/>
</g>
<defs>
<filter id="filter0_d_8_2" x="0" y="0" width="72" height="72" filterUnits="userSpaceOnUse" color-interpolation-filters="sRGB">
<feFlood flood-opacity="0" result="BackgroundImageFix"/>
<feColorMatrix in="SourceAlpha" type="matrix" values="0 0 0 0 0 0 0 0 0 0 0 0 0 0 0 0 0 0 127 0" result="hardAlpha"/>
<feOffset dy="4"/>
<feGaussianBlur stdDeviation="2"/>
<feComposite in2="hardAlpha" operator="out"/>
<feColorMatrix type="matrix" values="0 0 0 0 0 0 0 0 0 0 0 0 0 0 0 0 0 0 0.25 0"/>
<feBlend mode="normal" in2="BackgroundImageFix" result="effect1_dropShadow_8_2"/>
<feBlend mode="normal" in="SourceGraphic" in2="effect1_dropShadow_8_2" result="shape"/>
</filter>
</defs>
</svg>
