<svg width="148" height="148" viewBox="0 0 148 148" fill="none" xmlns="http://www.w3.org/2000/svg">
<path d="M0 0H148V148H0V0Z" fill="black"/>
<path d="M98.9316 72.2959L94.0801 64.2773V14.4141H98.9316V72.2959ZM108.635 88.1982L103.783 80.0449V14.4141H108.635V88.1982ZM118.338 104.303L113.486 96.082V14.4141H118.338V104.303ZM48.7988 68.1182L53.6504 76.1367V126H48.7988V68.1182ZM39.0957 52.2158L43.9473 60.3691V126H39.0957V52.2158ZM29.3926 36.1113L34.2441 44.332V126H29.3926V36.1113ZM31.0771 14.4141H36.7373L105.333 126H99.6729L31.0771 14.4141ZM42.5322 14.4141H48.2598L116.788 126H110.993L42.5322 14.4141ZM53.9199 14.4141H59.5801L123.189 118.116V14.4141H128.041V126C128.041 126 126.132 126 122.313 126L53.9199 14.4141ZM24.541 22.2979V126H19.6895V14.4141C19.6895 14.4141 21.6211 14.4141 25.4844 14.4141L93.8779 126H88.2852L24.541 22.2979Z" fill="white"/>
</svg>
